<svg width="1530" height="363" viewBox="0 0 1530 363" fill="none" xmlns="http://www.w3.org/2000/svg">
<path d="M0 1H1530V-1H0V1ZM1530 362H0V364H1530V362Z" fill="black" fill-opacity="0.34" mask="url(#path-1-inside-1_44_771)"/>
<path d="M25.5069 110.851V72.8182H204.697V110.851H137.9V291H92.3038V110.851H25.5069ZM234.207 291V72.8182H280.336V162.839H373.98V72.8182H420.003V291H373.98V200.872H280.336V291H234.207ZM458.035 291V72.8182H605.052V110.851H504.165V162.839H597.488V200.872H504.165V252.967H605.479V291H458.035ZM711.16 291V72.8182H798.518C814.569 72.8182 827.957 75.1974 838.682 79.956C849.406 84.7145 857.467 91.3196 862.865 99.7713C868.263 108.152 870.961 117.811 870.961 128.749C870.961 137.271 869.257 144.764 865.848 151.227C862.439 157.619 857.751 162.875 851.785 166.994C845.89 171.043 839.143 173.919 831.544 175.624V177.754C839.854 178.109 847.631 180.453 854.875 184.786C862.19 189.118 868.121 195.19 872.666 203.003C877.211 210.744 879.484 219.977 879.484 230.702C879.484 242.278 876.608 252.612 870.855 261.703C865.173 270.723 856.757 277.861 845.606 283.116C834.456 288.372 820.713 291 804.378 291H711.16ZM757.29 253.287H794.896C807.751 253.287 817.126 250.837 823.021 245.936C828.916 240.964 831.863 234.359 831.863 226.121C831.863 220.084 830.407 214.757 827.496 210.141C824.584 205.524 820.429 201.902 815.031 199.274C809.704 196.646 803.348 195.332 795.961 195.332H757.29V253.287ZM757.29 164.118H791.487C797.808 164.118 803.419 163.017 808.319 160.815C813.291 158.543 817.197 155.347 820.038 151.227C822.95 147.108 824.406 142.172 824.406 136.419C824.406 128.536 821.601 122.179 815.99 117.349C810.45 112.52 802.567 110.105 792.339 110.105H757.29V164.118ZM909.5 291V72.8182H955.629V252.967H1049.17V291H909.5ZM1271.72 181.909C1271.72 205.702 1267.21 225.943 1258.19 242.634C1249.24 259.324 1237.02 272.072 1221.54 280.879C1206.13 289.615 1188.8 293.983 1169.55 293.983C1150.16 293.983 1132.76 289.58 1117.35 280.773C1101.94 271.966 1089.76 259.217 1080.81 242.527C1071.86 225.837 1067.38 205.631 1067.38 181.909C1067.38 158.116 1071.86 137.875 1080.81 121.185C1089.76 104.494 1101.94 91.7812 1117.35 83.0455C1132.76 74.2386 1150.16 69.8352 1169.55 69.8352C1188.8 69.8352 1206.13 74.2386 1221.54 83.0455C1237.02 91.7812 1249.24 104.494 1258.19 121.185C1267.21 137.875 1271.72 158.116 1271.72 181.909ZM1224.95 181.909C1224.95 166.497 1222.64 153.5 1218.02 142.918C1213.48 132.335 1207.05 124.31 1198.74 118.841C1190.43 113.372 1180.7 110.638 1169.55 110.638C1158.4 110.638 1148.67 113.372 1140.36 118.841C1132.05 124.31 1125.59 132.335 1120.97 142.918C1116.42 153.5 1114.15 166.497 1114.15 181.909C1114.15 197.321 1116.42 210.318 1120.97 220.901C1125.59 231.483 1132.05 239.509 1140.36 244.977C1148.67 250.446 1158.4 253.18 1169.55 253.18C1180.7 253.18 1190.43 250.446 1198.74 244.977C1207.05 239.509 1213.48 231.483 1218.02 220.901C1222.64 210.318 1224.95 197.321 1224.95 181.909ZM1450.56 143.344C1449.07 138.159 1446.97 133.578 1444.27 129.601C1441.58 125.553 1438.27 122.143 1434.37 119.374C1430.53 116.533 1426.13 114.366 1421.16 112.875C1416.26 111.384 1410.82 110.638 1404.86 110.638C1393.71 110.638 1383.91 113.408 1375.45 118.947C1367.07 124.487 1360.54 132.548 1355.85 143.131C1351.16 153.642 1348.82 166.497 1348.82 181.696C1348.82 196.895 1351.13 209.821 1355.74 220.474C1360.36 231.128 1366.9 239.26 1375.35 244.871C1383.8 250.411 1393.78 253.18 1405.28 253.18C1415.72 253.18 1424.64 251.334 1432.02 247.641C1439.48 243.876 1445.16 238.585 1449.07 231.767C1453.05 224.949 1455.03 216.888 1455.03 207.584L1464.41 208.969H1408.16V174.239H1499.46V201.724C1499.46 220.901 1495.41 237.378 1487.31 251.156C1479.22 264.864 1468.07 275.446 1453.86 282.903C1439.66 290.29 1423.39 293.983 1405.07 293.983C1384.62 293.983 1366.65 289.473 1351.16 280.453C1335.68 271.362 1323.61 258.472 1314.94 241.781C1306.35 225.02 1302.05 205.134 1302.05 182.122C1302.05 164.437 1304.61 148.67 1309.72 134.821C1314.91 120.901 1322.15 109.111 1331.46 99.4517C1340.76 89.7926 1351.59 82.4418 1363.95 77.3991C1376.31 72.3565 1389.69 69.8352 1404.11 69.8352C1416.47 69.8352 1427.97 71.6463 1438.63 75.2685C1449.28 78.8196 1458.73 83.8622 1466.97 90.3963C1475.28 96.9304 1482.06 104.707 1487.31 113.727C1492.57 122.676 1495.94 132.548 1497.44 143.344H1450.56Z" fill="white"/>
</svg>
