<svg width="1475" height="225" viewBox="0 0 1475 225" fill="none" xmlns="http://www.w3.org/2000/svg">
<path d="M0.506925 41.8508V3.81818H179.697V41.8508H112.9V222H67.3038V41.8508H0.506925ZM209.207 222V3.81818H255.336V93.8395H348.98V3.81818H395.003V222H348.98V131.872H255.336V222H209.207ZM433.035 222V3.81818H580.052V41.8508H479.165V93.8395H572.488V131.872H479.165V183.967H580.479V222H433.035ZM686.16 222V3.81818H773.518C789.569 3.81818 802.957 6.19744 813.682 10.956C824.406 15.7145 832.467 22.3196 837.865 30.7713C843.263 39.152 845.961 48.8111 845.961 59.7486C845.961 68.2713 844.257 75.7642 840.848 82.2273C837.439 88.6193 832.751 93.875 826.785 97.9943C820.89 102.043 814.143 104.919 806.544 106.624V108.754C814.854 109.109 822.631 111.453 829.875 115.786C837.19 120.118 843.121 126.19 847.666 134.003C852.211 141.744 854.484 150.977 854.484 161.702C854.484 173.278 851.608 183.612 845.855 192.703C840.173 201.723 831.757 208.861 820.606 214.116C809.456 219.372 795.713 222 779.378 222H686.16ZM732.29 184.287H769.896C782.751 184.287 792.126 181.837 798.021 176.936C803.916 171.964 806.863 165.359 806.863 157.121C806.863 151.084 805.407 145.757 802.496 141.141C799.584 136.524 795.429 132.902 790.031 130.274C784.704 127.646 778.348 126.332 770.961 126.332H732.29V184.287ZM732.29 95.1179H766.487C772.808 95.1179 778.419 94.017 783.319 91.8153C788.291 89.5426 792.197 86.3466 795.038 82.2273C797.95 78.108 799.406 73.1719 799.406 67.419C799.406 59.5355 796.601 53.179 790.99 48.3494C785.45 43.5199 777.567 41.1051 767.339 41.1051H732.29V95.1179ZM884.5 222V3.81818H930.629V183.967H1024.17V222H884.5ZM1246.72 112.909C1246.72 136.702 1242.21 156.943 1233.19 173.634C1224.24 190.324 1212.02 203.072 1196.54 211.879C1181.13 220.615 1163.8 224.983 1144.55 224.983C1125.16 224.983 1107.76 220.58 1092.35 211.773C1076.94 202.966 1064.76 190.217 1055.81 173.527C1046.86 156.837 1042.38 136.631 1042.38 112.909C1042.38 89.1165 1046.86 68.875 1055.81 52.1847C1064.76 35.4943 1076.94 22.7812 1092.35 14.0455C1107.76 5.23863 1125.16 0.835219 1144.55 0.835219C1163.8 0.835219 1181.13 5.23863 1196.54 14.0455C1212.02 22.7812 1224.24 35.4943 1233.19 52.1847C1242.21 68.875 1246.72 89.1165 1246.72 112.909ZM1199.95 112.909C1199.95 97.4972 1197.64 84.5 1193.02 73.9176C1188.48 63.3352 1182.05 55.3097 1173.74 49.8409C1165.43 44.3722 1155.7 41.6378 1144.55 41.6378C1133.4 41.6378 1123.67 44.3722 1115.36 49.8409C1107.05 55.3097 1100.59 63.3352 1095.97 73.9176C1091.42 84.5 1089.15 97.4972 1089.15 112.909C1089.15 128.321 1091.42 141.318 1095.97 151.901C1100.59 162.483 1107.05 170.509 1115.36 175.977C1123.67 181.446 1133.4 184.18 1144.55 184.18C1155.7 184.18 1165.43 181.446 1173.74 175.977C1182.05 170.509 1188.48 162.483 1193.02 151.901C1197.64 141.318 1199.95 128.321 1199.95 112.909ZM1425.56 74.3438C1424.07 69.1591 1421.97 64.5781 1419.27 60.6008C1416.58 56.5526 1413.27 53.1435 1409.37 50.3736C1405.53 47.5327 1401.13 45.3665 1396.16 43.875C1391.26 42.3835 1385.82 41.6378 1379.86 41.6378C1368.71 41.6378 1358.91 44.4077 1350.45 49.9474C1342.07 55.4872 1335.54 63.5483 1330.85 74.1307C1326.16 84.642 1323.82 97.4972 1323.82 112.696C1323.82 127.895 1326.13 140.821 1330.74 151.474C1335.36 162.128 1341.9 170.26 1350.35 175.871C1358.8 181.411 1368.78 184.18 1380.28 184.18C1390.72 184.18 1399.64 182.334 1407.02 178.641C1414.48 174.876 1420.16 169.585 1424.07 162.767C1428.05 155.949 1430.03 147.888 1430.03 138.584L1439.41 139.969H1383.16V105.239H1474.46V132.724C1474.46 151.901 1470.41 168.378 1462.31 182.156C1454.22 195.864 1443.07 206.446 1428.86 213.903C1414.66 221.29 1398.39 224.983 1380.07 224.983C1359.62 224.983 1341.65 220.473 1326.16 211.453C1310.68 202.362 1298.61 189.472 1289.94 172.781C1281.35 156.02 1277.05 136.134 1277.05 113.122C1277.05 95.4375 1279.61 79.6705 1284.72 65.821C1289.91 51.9006 1297.15 40.1108 1306.46 30.4517C1315.76 20.7926 1326.59 13.4418 1338.95 8.39914C1351.31 3.35653 1364.69 0.835219 1379.11 0.835219C1391.47 0.835219 1402.97 2.6463 1413.63 6.26846C1424.28 9.8196 1433.73 14.8622 1441.97 21.3963C1450.28 27.9304 1457.06 35.7074 1462.31 44.7273C1467.57 53.6761 1470.94 63.5483 1472.44 74.3438H1425.56Z" fill="#1A1A1A"/>
</svg>
